<?xml version="1.0" encoding="UTF-8" standalone="no"?>
<svg
   xmlns:osb="http://www.openswatchbook.org/uri/2009/osb"
   xmlns:dc="http://purl.org/dc/elements/1.1/"
   xmlns:cc="http://creativecommons.org/ns#"
   xmlns:rdf="http://www.w3.org/1999/02/22-rdf-syntax-ns#"
   xmlns:svg="http://www.w3.org/2000/svg"
   xmlns="http://www.w3.org/2000/svg"
   xmlns:xlink="http://www.w3.org/1999/xlink"
   xmlns:sodipodi="http://sodipodi.sourceforge.net/DTD/sodipodi-0.dtd"
   xmlns:inkscape="http://www.inkscape.org/namespaces/inkscape"
   width="304px"
   height="304px"
   viewBox="0 0 304 304"
   version="1.1"
   id="svg2"
   inkscape:version="0.91 r13725"
   sodipodi:docname="circuit.svg">
  <metadata
     id="metadata15">
    <rdf:RDF>
      <cc:Work
         rdf:about="">
        <dc:format>image/svg+xml</dc:format>
        <dc:type
           rdf:resource="http://purl.org/dc/dcmitype/StillImage" />
      </cc:Work>
    </rdf:RDF>
  </metadata>
  <sodipodi:namedview
     pagecolor="#ffffff"
     bordercolor="#666666"
     borderopacity="1"
     objecttolerance="10"
     gridtolerance="10"
     guidetolerance="10"
     inkscape:pageopacity="0"
     inkscape:pageshadow="2"
     inkscape:window-width="1366"
     inkscape:window-height="708"
     id="namedview13"
     showgrid="false"
     inkscape:zoom="0.77631579"
     inkscape:cx="-43.152543"
     inkscape:cy="149.42373"
     inkscape:window-x="0"
     inkscape:window-y="0"
     inkscape:window-maximized="1"
     inkscape:current-layer="svg2" />
  <!-- Generator: Sketch 40 (33762) - http://www.bohemiancoding.com/sketch -->
  <title
     id="title4">Artboard 3 Copy 2</title>
  <desc
     id="desc6">Created with Sketch.</desc>
  <defs
     id="defs8">
    <linearGradient
       id="linearGradient5728"
       osb:paint="solid">
      <stop
         style="stop-color:#f02d5b;stop-opacity:0;"
         offset="0"
         id="stop5730" />
    </linearGradient>
    <linearGradient
       id="linearGradient5593"
       osb:paint="solid">
      <stop
         style="stop-color:#00ff13;stop-opacity:1;"
         offset="0"
         id="stop5595" />
    </linearGradient>
    <linearGradient
       id="linearGradient5587"
       osb:paint="solid">
      <stop
         style="stop-color:#00ff13;stop-opacity:1;"
         offset="0"
         id="stop5589" />
    </linearGradient>
    <linearGradient
       inkscape:collect="always"
       xlink:href="#linearGradient5728"
       id="linearGradient5732"
       x1="-1.2071068"
       y1="152"
       x2="304.5"
       y2="152"
       gradientUnits="userSpaceOnUse" />
    <linearGradient
       inkscape:collect="always"
       xlink:href="#linearGradient5728"
       id="linearGradient5734"
       gradientUnits="userSpaceOnUse"
       x1="-1.2071068"
       y1="152"
       x2="304.5"
       y2="152" />
    <linearGradient
       inkscape:collect="always"
       xlink:href="#linearGradient5728"
       id="linearGradient5736"
       gradientUnits="userSpaceOnUse"
       x1="-1.2071068"
       y1="152"
       x2="304.5"
       y2="152" />
  </defs>
  <g
     id="Page-1"
     style="opacity:0.47000002;fill:#00ff00;fill-opacity:1;fill-rule:evenodd;stroke:url(#linearGradient5732);stroke-width:2.70000005;stroke-miterlimit:4;stroke-dasharray:none;stroke-opacity:1"
     transform="matrix(0.98740582,0,0,1.0000731,3.834496,-0.01110858)">
    <g
       id="Artboard-3-Copy-2"
       style="fill:#00ff00;fill-opacity:1;stroke:url(#linearGradient5736);stroke-width:2.70000005;stroke-miterlimit:4;stroke-dasharray:none;stroke-opacity:1">
      <path
         d="m 44.100018,224 c 0.46327,-2.28224 2.481024,-4 4.899982,-4 2.761424,0 5,2.23858 5,5 0,2.76142 -2.238576,5 -5,5 -2.418958,0 -4.436712,-1.71776 -4.899982,-4 L 0,226 l 0,-2 44.100018,0 0,0 z m 160.000002,48 c 0.46327,-2.28224 2.48102,-4 4.89998,-4 2.76142,0 5,2.23858 5,5 0,2.76142 -2.23858,5 -5,5 -2.41896,0 -4.43671,-1.71776 -4.89998,-4 L 82,274 l 0,-2 122.10002,0 0,0 z m 57.79996,-46 c -0.46327,2.28224 -2.48102,4 -4.89998,4 -2.76142,0 -5,-2.23858 -5,-5 0,-2.76142 2.23858,-5 5,-5 2.41896,0 4.43671,1.71776 4.89998,4 L 304,224 l 0,2 -42.10002,0 0,0 z m 0,16 c -0.46327,2.28224 -2.48102,4 -4.89998,4 -2.76142,0 -5,-2.23858 -5,-5 0,-2.76142 2.23858,-5 5,-5 2.41896,0 4.43671,1.71776 4.89998,4 L 304,240 l 0,2 -42.10002,0 0,0 z m 6.20004,-114 c 0.46327,-2.28224 2.48102,-4 4.89998,-4 2.76142,0 5,2.23858 5,5 0,2.76142 -2.23858,5 -5,5 -2.41896,0 -4.43671,-1.71776 -4.89998,-4 l -86.20004,0 c -0.46327,2.28224 -2.48102,4 -4.89998,4 -2.76142,0 -5,-2.23858 -5,-5 0,-2.76142 2.23858,-5 5,-5 2.41896,0 4.43671,1.71776 4.89998,4 l 86.20004,0 0,0 z M 12.100018,80 C 12.563288,77.71776 14.581042,76 17,76 c 2.761424,0 5,2.238576 5,5 0,2.761424 -2.238576,5 -5,5 -2.418958,0 -4.436712,-1.71776 -4.899982,-4 L 0,82 l 0,-2 12.100018,0 0,0 z m 185.799962,34 c -0.46327,2.28224 -2.48102,4 -4.89998,4 -2.76142,0 -5,-2.23858 -5,-5 0,-2.76142 2.23858,-5 5,-5 2.41896,0 4.43671,1.71776 4.89998,4 l 86.20004,0 c 0.46327,-2.28224 2.48102,-4 4.89998,-4 2.76142,0 5,2.23858 5,5 0,2.76142 -2.23858,5 -5,5 -2.41896,0 -4.43671,-1.71776 -4.89998,-4 l -86.20004,0 0,0 z M 258,12.100018 c 2.28224,0.46327 4,2.481024 4,4.899982 0,2.761424 -2.23858,5 -5,5 -2.76142,0 -5,-2.238576 -5,-5 0,-2.418958 1.71776,-4.436712 4,-4.899982 L 256,0 l 2,0 0,12.100018 0,0 z M 194,220.10002 c 2.28224,0.46327 4,2.48102 4,4.89998 0,2.76142 -2.23858,5 -5,5 -2.76142,0 -5,-2.23858 -5,-5 0,-2.41896 1.71776,-4.43671 4,-4.89998 l 0,-54.20004 c -2.28224,-0.46327 -4,-2.48102 -4,-4.89998 0,-2.76142 2.23858,-5 5,-5 2.76142,0 5,2.23858 5,5 0,2.41896 -1.71776,4.43671 -4,4.89998 l 0,54.20004 0,0 z M 242,21.899982 c 2.28224,-0.46327 4,-2.481024 4,-4.899982 0,-2.761424 -2.23858,-5 -5,-5 -2.76142,0 -5,2.238576 -5,5 0,2.418958 1.71776,4.436712 4,4.899982 L 240,81 l 0,1 64,0 0,-2 -62,0 0,0 0,-58.100018 0,0 z m 16,16 c 2.28224,-0.46327 4,-2.481024 4,-4.899982 0,-2.761424 -2.23858,-5 -5,-5 -2.76142,0 -5,2.238576 -5,5 0,2.418958 1.71776,4.436712 4,4.899982 L 256,65 l 0,1 48,0 0,-2 -46,0 0,0 0,-26.100018 0,0 z M 130,133.89998 c 2.28224,-0.46327 4,-2.48102 4,-4.89998 0,-2.76142 -2.23858,-5 -5,-5 -2.76142,0 -5,2.23858 -5,5 0,2.41896 1.71776,4.43671 4,4.89998 L 128,209 l 0,1 16,0 0,0 0,10.10002 c -2.28224,0.46327 -4,2.48102 -4,4.89998 0,2.76142 2.23858,5 5,5 2.76142,0 5,-2.23858 5,-5 0,-2.41896 -1.71776,-4.43671 -4,-4.89998 L 146,208 l -1,0 -15,0 0,-74.10002 0,0 z M 124.10002,112 c 0.46327,-2.28224 2.48102,-4 4.89998,-4 2.76142,0 5,2.23858 5,5 0,2.76142 -2.23858,5 -5,5 -2.41896,0 -4.43671,-1.71776 -4.89998,-4 L 114,114 l 0,0 0,48 -1.5,0 -26.600018,0 c -0.46327,2.28224 -2.481024,4 -4.899982,4 -2.761424,0 -5,-2.23858 -5,-5 0,-2.76142 2.238576,-5 5,-5 2.418958,0 4.436712,1.71776 4.899982,4 L 112,160 l 0,-47 0,-1 12.10002,0 0,0 z m -6.20004,130 c -0.46327,2.28224 -2.48102,4 -4.89998,4 -2.76142,0 -5,-2.23858 -5,-5 0,-2.76142 2.23858,-5 5,-5 2.41896,0 4.43671,1.71776 4.89998,4 L 176,240 l 0,-74.10002 c -2.28224,-0.46327 -4,-2.48102 -4,-4.89998 0,-2.76142 2.23858,-5 5,-5 2.76142,0 5,2.23858 5,5 0,2.41896 -1.71776,4.43671 -4,4.89998 L 178,242 l -1,0 0,0 -59.10002,0 0,0 z m -16,-64 c -0.46327,2.28224 -2.481022,4 -4.89998,4 -2.761424,0 -5,-2.23858 -5,-5 0,-2.76142 2.238576,-5 5,-5 2.418958,0 4.43671,1.71776 4.89998,4 L 114,176 l 0,1 0,47 0,0 10.10002,0 c 0.46327,-2.28224 2.48102,-4 4.89998,-4 2.76142,0 5,2.23858 5,5 0,2.76142 -2.23858,5 -5,5 -2.41896,0 -4.43671,-1.71776 -4.89998,-4 L 112,226 l 0,-1 0,-47 -10.10002,0 0,0 z M 66,284.10002 c 2.28224,0.46327 4,2.48102 4,4.89998 0,2.76142 -2.238576,5 -5,5 -2.761424,0 -5,-2.23858 -5,-5 0,-2.41896 1.71776,-4.43671 4,-4.89998 L 64,274 l -14,0 0,30 -2,0 0,-32 1,0 0,0 15.5,0 1.5,0 0,12.10002 0,0 z M 236.10002,176 c 0.46327,-2.28224 2.48102,-4 4.89998,-4 2.76142,0 5,2.23858 5,5 0,2.76142 -2.23858,5 -5,5 -2.41896,0 -4.43671,-1.71776 -4.89998,-4 L 226,178 l 0,0 0,94 48,0 0,1 0,31 -2,0 0,-30 -48,0 0,-1 0,-96 0,-1 12.10002,0 0,0 z m 25.79996,-30 c -0.46327,2.28224 -2.48102,4 -4.89998,4 -2.76142,0 -5,-2.23858 -5,-5 0,-2.76142 2.23858,-5 5,-5 2.41896,0 4.43671,1.71776 4.89998,4 L 274,144 l 0,1.5 0,0 0,42.60002 c 2.28224,0.46327 4,2.48102 4,4.89998 0,2.76142 -2.23858,5 -5,5 -2.76142,0 -5,-2.23858 -5,-5 0,-2.41896 1.71776,-4.43671 4,-4.89998 L 272,146 l -10.10002,0 0,0 z m -64,96 c -0.46327,2.28224 -2.48102,4 -4.89998,4 -2.76142,0 -5,-2.23858 -5,-5 0,-2.76142 2.23858,-5 5,-5 2.41896,0 4.43671,1.71776 4.89998,4 L 208,240 l 0,0 0,-80 1,0 15,0 0,-14 -42.10002,0 c -0.46327,2.28224 -2.48102,4 -4.89998,4 -2.76142,0 -5,-2.23858 -5,-5 0,-2.76142 2.23858,-5 5,-5 2.41896,0 4.43671,1.71776 4.89998,4 L 226,144 l 0,1 0,17 -1,0 -15,0 0,79 0,1 -12.10002,0 0,0 z M 284.10002,32 c 0.46327,-2.28224 2.48102,-4 4.89998,-4 2.76142,0 5,2.238576 5,5 0,2.761424 -2.23858,5 -5,5 -2.41896,0 -4.43671,-1.71776 -4.89998,-4 L 272,34 l 0,-1 0,-33 2,0 0,32 0,0 10.10002,0 0,0 z M 98,101.89998 c 2.28224,-0.46327 4,-2.481022 4,-4.89998 0,-2.761424 -2.238576,-5 -5,-5 -2.761424,0 -5,2.238576 -5,5 0,2.418958 1.71776,4.43671 4,4.89998 L 96,144 53.899982,144 C 53.436712,141.71776 51.418958,140 49,140 c -2.761424,0 -5,2.23858 -5,5 0,2.76142 2.238576,5 5,5 2.418958,0 4.436712,-1.71776 4.899982,-4 L 96.5,146 l 0,0 1.5,0 0,-44.10002 0,0 z M 53.899982,34 C 53.436712,36.28224 51.418958,38 49,38 c -2.761424,0 -5,-2.238576 -5,-5 0,-2.761424 2.238576,-5 5,-5 2.418958,0 4.436712,1.71776 4.899982,4 L 80,32 80,0 l 2,0 0,34 -1,0 0,0 -27.100018,0 0,0 z M 114,37.899982 c 2.28224,-0.46327 4,-2.481024 4,-4.899982 0,-2.761424 -2.23858,-5 -5,-5 -2.76142,0 -5,2.238576 -5,5 0,2.418958 1.71776,4.436712 4,4.899982 L 112,64 l -32,0 0,1 0,63 -10.100018,0 C 69.436712,125.71776 67.418958,124 65,124 c -2.761424,0 -5,2.23858 -5,5 0,2.76142 2.238576,5 5,5 2.418958,0 4.436712,-1.71776 4.899982,-4 L 82,130 l 0,-1.5 0,-62.5 0,0 31,0 1,0 0,-28.100018 0,0 z M 101.89998,82 c -0.46327,2.28224 -2.481022,4 -4.89998,4 -2.761424,0 -5,-2.238576 -5,-5 0,-2.761424 2.238576,-5 5,-5 2.418958,0 4.43671,1.71776 4.89998,4 L 128,80 128,37.899982 C 125.71776,37.436712 124,35.418958 124,33 c 0,-2.761424 2.23858,-5 5,-5 2.76142,0 5,2.238576 5,5 0,2.418958 -1.71776,4.436712 -4,4.899982 L 130,82 l -1.5,0 0,0 -26.60002,0 0,0 z m 16,-64 c -0.46327,2.28224 -2.48102,4 -4.89998,4 -2.76142,0 -5,-2.238576 -5,-5 0,-2.761424 2.23858,-5 5,-5 2.41896,0 4.43671,1.71776 4.89998,4 L 146,16 l 0,1 0,0 0,43.100018 c 2.28224,0.46327 4,2.481024 4,4.899982 0,2.761424 -2.23858,5 -5,5 -2.76142,0 -5,-2.238576 -5,-5 0,-2.418958 1.71776,-4.436712 4,-4.899982 L 144,18 l -26.10002,0 0,0 z m 102.20004,270 c 0.46327,-2.28224 2.48102,-4 4.89998,-4 2.76142,0 5,2.23858 5,5 0,2.76142 -2.23858,5 -5,5 -2.41896,0 -4.43671,-1.71776 -4.89998,-4 L 98,290 l 0,14 -2,0 0,-16 1,0 123.10002,0 0,0 z M 242,149.89998 c 2.28224,-0.46327 4,-2.48102 4,-4.89998 0,-2.76142 -2.23858,-5 -5,-5 -2.76142,0 -5,2.23858 -5,5 0,2.41896 1.71776,4.43671 4,4.89998 L 240,162 l 1.5,0 14.5,0 0,30 -14.5,0 -1.5,0 0,65 0,1 48,0 0,46 2,0 0,-47 0,-1 -48,0 0,0 0,-62 15,0 1,0 0,-34 -1,0 -15,0 0,-10.10002 0,0 z M 53.899982,18 C 53.436712,20.28224 51.418958,22 49,22 c -2.761424,0 -5,-2.238576 -5,-5 0,-2.761424 2.238576,-5 5,-5 2.418958,0 4.436712,1.71776 4.899982,4 L 64,16 64,2 48,2 l 0,-2 16.5,0 0,0 1.5,0 0,18 -1,0 -11.100018,0 0,0 z M 165.89998,50 c -0.46327,2.28224 -2.48102,4 -4.89998,4 -2.76142,0 -5,-2.238576 -5,-5 0,-2.761424 2.23858,-5 5,-5 2.41896,0 4.43671,1.71776 4.89998,4 L 192,48 l 0,-47 0,-1 50,0 0,2 -48,0 0,0 0,48 -1,0 -27.10002,0 0,0 z m -48,-48 C 117.43671,4.2822403 115.41896,6 113,6 c -2.76142,0 -5,-2.2385762 -5,-5 0,-0.34246584 0.0344,-0.67689006 0.10002,-1 l 2.07069,0 C 110.06015,0.31277892 110,0.64936458 110,1 c 0,1.6568543 1.34315,3 3,3 1.65685,0 3,-1.3431457 3,-3 0,-0.35063542 -0.0601,-0.68722108 -0.17071,-1 l 1.6207,0 59.05001,0 0,0 1.5,0 0,34 -1,0 -17,0 0,-1 0,-11.100018 C 157.71776,21.436712 156,19.418958 156,17 c 0,-2.761424 2.23858,-5 5,-5 2.76142,0 5,2.238576 5,5 0,2.418958 -1.71776,4.436712 -4,4.899982 L 162,32 l 14,0 0,-30 -58.10002,0 0,0 z m 0,96 c -0.46327,2.28224 -2.48102,4 -4.89998,4 -2.76142,0 -5,-2.238576 -5,-5 0,-2.761424 2.23858,-5 5,-5 2.41896,0 4.43671,1.71776 4.89998,4 L 137,96 l 32,-32 1.41421,0 0,0 L 208,64 208,21.899982 C 205.71776,21.436712 204,19.418958 204,17 c 0,-2.761424 2.23858,-5 5,-5 2.76142,0 5,2.238576 5,5 0,2.418958 -1.71776,4.436712 -4,4.899982 L 210,66 l -1,0 -39.17157,0 -32,32 -1.82843,0 -18.10002,0 0,0 z M 146,188.10002 c 2.28224,0.46327 4,2.48102 4,4.89998 0,2.76142 -2.23858,5 -5,5 -2.76142,0 -5,-2.23858 -5,-5 0,-2.41896 1.71776,-4.43671 4,-4.89998 l 0,-74.89291 0,-1.62132 L 175.58579,80 l 1.62132,0 0,0 L 224,80 224,21.899982 C 221.71776,21.436712 220,19.418958 220,17 c 0,-2.761424 2.23858,-5 5,-5 2.76142,0 5,2.238576 5,5 0,2.418958 -1.71776,4.436712 -4,4.899982 L 226,82 225,82 176.41421,82 146,112.41421 l 0,75.68581 0,0 z m 16,32 c 2.28224,0.46327 4,2.48102 4,4.89998 0,2.76142 -2.23858,5 -5,5 -2.76142,0 -5,-2.23858 -5,-5 0,-2.41896 1.71776,-4.43671 4,-4.89998 l 0,-97.89291 0,-1.62132 L 184.58579,96 l 1.62132,0 113.89291,0 C 300.4977,94.04087 302.04087,92.497701 304,92.100018 l 0,2.070688 c -1.16519,0.411836 -2,1.523075 -2,2.829294 0,1.306219 0.83481,2.417458 2,2.829294 l 0,2.070686 C 302.04087,101.5023 300.4977,99.95913 300.10002,98 l -114.68581,0 0,0 L 162,121.41421 l 0,98.68581 0,0 z m -144,-64 c 2.28224,0.46327 4,2.48102 4,4.89998 0,2.76142 -2.238576,5 -5,5 -2.761424,0 -5,-2.23858 -5,-5 0,-2.41896 1.71776,-4.43671 4,-4.89998 l 0,-1.89291 0,-1.62132 48,-48 0,0 L 64,48 l 1,0 31,0 0,-48 2,0 0,48.5 0,1.5 -32,0 0,53.79289 0,1.62132 -48,48 0,2.68581 0,0 z M 50,53.899982 C 52.28224,53.436712 54,51.418958 54,49 c 0,-2.761424 -2.238576,-5 -5,-5 -2.761424,0 -5,2.238576 -5,5 0,2.418958 1.71776,4.436712 4,4.899982 l 0,42.685804 -48,48.000004 0,0 0,1.62132 L 0,209 l 0,1 28.100018,0 c 0.46327,2.28224 2.481024,4 4.899982,4 2.761424,0 5,-2.23858 5,-5 0,-2.76142 -2.238576,-5 -5,-5 -2.418958,0 -4.436712,1.71776 -4.899982,4 L 2,208 l 0,-62.58579 0,0 48,-47.999996 0,-1.621321 0,-41.892911 0,0 z m -16,16 C 36.28224,69.436712 38,67.418958 38,65 c 0,-2.761424 -2.238576,-5 -5,-5 -2.761424,0 -5,2.238576 -5,5 0,2.418958 1.71776,4.436712 4,4.899982 l 0,18.685804 -32,32.000004 0,0 0,2.82842 34,-33.999996 0,-1.621321 0,0 0,-17.892911 0,0 z M 12.100018,32 C 12.563288,29.71776 14.581042,28 17,28 c 2.761424,0 5,2.238576 5,5 0,2.761424 -2.238576,5 -5,5 -2.418958,0 -4.436712,-1.71776 -4.899982,-4 L 9.4142136,34 0,43.414214 l 0,-2.828428 0,0 L 8.5857864,32 l 1.6213206,0 0,0 1.892911,0 0,0 z M 277.89998,50 c -0.46327,2.28224 -2.48102,4 -4.89998,4 -2.76142,0 -5,-2.238576 -5,-5 0,-2.761424 2.23858,-5 5,-5 2.41896,0 4.43671,1.71776 4.89998,4 l 18.68581,0 0,0 L 304,40.585786 304,43.414214 297.41421,50 l -1.62132,0 -17.89291,0 0,0 z m -16,160 c -0.46327,2.28224 -2.48102,4 -4.89998,4 -2.76142,0 -5,-2.23858 -5,-5 0,-2.76142 2.23858,-5 5,-5 2.41896,0 4.43671,1.71776 4.89998,4 L 288,208 l 0,-69.79289 0,-1.62132 16,-16 0,2.82842 -14,14 0,0 0,72.58579 -1,0 -27.10002,0 0,0 z M 53.899982,242 c -0.46327,2.28224 -2.481024,4 -4.899982,4 -2.761424,0 -5,-2.23858 -5,-5 0,-2.76142 2.238576,-5 5,-5 2.418958,0 4.436712,1.71776 4.899982,4 L 64,240 64,217.41421 40.585786,194 21.899982,194 c -0.46327,2.28224 -2.481024,4 -4.899982,4 -2.761424,0 -5,-2.23858 -5,-5 0,-2.76142 2.238576,-5 5,-5 2.418958,0 4.436712,1.71776 4.899982,4 l 17.892911,0 1.621321,0 L 66,216.58579 l 0,0 0,1.62132 0,0 0,23.79289 -1,0 -11.100018,0 0,0 z m 150.200038,14 c 0.46327,-2.28224 2.48102,-4 4.89998,-4 2.76142,0 5,2.23858 5,5 0,2.76142 -2.23858,5 -5,5 -2.41896,0 -4.43671,-1.71776 -4.89998,-4 L 96,258 96,256.5 96,201.40186 56.598141,162 37.899982,162 c -0.46327,2.28224 -2.481024,4 -4.899982,4 -2.761424,0 -5,-2.23858 -5,-5 0,-2.76142 2.238576,-5 5,-5 2.418958,0 4.436712,1.71776 4.899982,4 l 17.899088,0 1.602789,0 L 98,200.59814 l 0,0 0,1.20093 0,0 0,54.20093 106.10002,0 0,0 z m -150.200038,2 c -0.46327,2.28224 -2.481024,4 -4.899982,4 -2.761424,0 -5,-2.23858 -5,-5 0,-2.76142 2.238576,-5 5,-5 2.418958,0 4.436712,1.71776 4.899982,4 L 80,256 80,209.41421 48.585786,178 21.899982,178 c -0.46327,2.28224 -2.481024,4 -4.899982,4 -2.761424,0 -5,-2.23858 -5,-5 0,-2.76142 2.238576,-5 5,-5 2.418958,0 4.436712,1.71776 4.899982,4 l 25.892911,0 1.621321,0 L 82,208.58579 l 0,0 0,1.62132 0,0 0,47.79289 -1,0 -27.100018,0 0,0 z M 97,100 c 1.656854,0 3,-1.343146 3,-3 0,-1.656854 -1.343146,-3 -3,-3 -1.656854,0 -3,1.343146 -3,3 0,1.656854 1.343146,3 3,3 l 0,0 z m 0,-16 c 1.656854,0 3,-1.343146 3,-3 0,-1.656854 -1.343146,-3 -3,-3 -1.656854,0 -3,1.343146 -3,3 0,1.656854 1.343146,3 3,3 l 0,0 z m 16,16 c 1.65685,0 3,-1.343146 3,-3 0,-1.656854 -1.34315,-3 -3,-3 -1.65685,0 -3,1.343146 -3,3 0,1.656854 1.34315,3 3,3 l 0,0 z m 16,16 c 1.65685,0 3,-1.34315 3,-3 0,-1.65685 -1.34315,-3 -3,-3 -1.65685,0 -3,1.34315 -3,3 0,1.65685 1.34315,3 3,3 l 0,0 z m 0,16 c 1.65685,0 3,-1.34315 3,-3 0,-1.65685 -1.34315,-3 -3,-3 -1.65685,0 -3,1.34315 -3,3 0,1.65685 1.34315,3 3,3 l 0,0 z m -48,32 c 1.656854,0 3,-1.34315 3,-3 0,-1.65685 -1.343146,-3 -3,-3 -1.656854,0 -3,1.34315 -3,3 0,1.65685 1.343146,3 3,3 l 0,0 z m 16,16 c 1.656854,0 3,-1.34315 3,-3 0,-1.65685 -1.343146,-3 -3,-3 -1.656854,0 -3,1.34315 -3,3 0,1.65685 1.343146,3 3,3 l 0,0 z m 32,48 c 1.65685,0 3,-1.34315 3,-3 0,-1.65685 -1.34315,-3 -3,-3 -1.65685,0 -3,1.34315 -3,3 0,1.65685 1.34315,3 3,3 l 0,0 z m -16,16 c 1.65685,0 3,-1.34315 3,-3 0,-1.65685 -1.34315,-3 -3,-3 -1.65685,0 -3,1.34315 -3,3 0,1.65685 1.34315,3 3,3 l 0,0 z m 32,-16 c 1.65685,0 3,-1.34315 3,-3 0,-1.65685 -1.34315,-3 -3,-3 -1.65685,0 -3,1.34315 -3,3 0,1.65685 1.34315,3 3,3 l 0,0 z m 0,-32 c 1.65685,0 3,-1.34315 3,-3 0,-1.65685 -1.34315,-3 -3,-3 -1.65685,0 -3,1.34315 -3,3 0,1.65685 1.34315,3 3,3 l 0,0 z m 16,32 c 1.65685,0 3,-1.34315 3,-3 0,-1.65685 -1.34315,-3 -3,-3 -1.65685,0 -3,1.34315 -3,3 0,1.65685 1.34315,3 3,3 l 0,0 z m 32,16 c 1.65685,0 3,-1.34315 3,-3 0,-1.65685 -1.34315,-3 -3,-3 -1.65685,0 -3,1.34315 -3,3 0,1.65685 1.34315,3 3,3 l 0,0 z m 0,-16 c 1.65685,0 3,-1.34315 3,-3 0,-1.65685 -1.34315,-3 -3,-3 -1.65685,0 -3,1.34315 -3,3 0,1.65685 1.34315,3 3,3 l 0,0 z m -16,-64 c 1.65685,0 3,-1.34315 3,-3 0,-1.65685 -1.34315,-3 -3,-3 -1.65685,0 -3,1.34315 -3,3 0,1.65685 1.34315,3 3,3 l 0,0 z m 16,0 c 1.65685,0 3,-1.34315 3,-3 0,-1.65685 -1.34315,-3 -3,-3 -1.65685,0 -3,1.34315 -3,3 0,1.65685 1.34315,3 3,3 l 0,0 z m 16,96 c 1.65685,0 3,-1.34315 3,-3 0,-1.65685 -1.34315,-3 -3,-3 -1.65685,0 -3,1.34315 -3,3 0,1.65685 1.34315,3 3,3 l 0,0 z m 0,16 c 1.65685,0 3,-1.34315 3,-3 0,-1.65685 -1.34315,-3 -3,-3 -1.65685,0 -3,1.34315 -3,3 0,1.65685 1.34315,3 3,3 l 0,0 z m 16,16 c 1.65685,0 3,-1.34315 3,-3 0,-1.65685 -1.34315,-3 -3,-3 -1.65685,0 -3,1.34315 -3,3 0,1.65685 1.34315,3 3,3 l 0,0 z m 16,-144 c 1.65685,0 3,-1.34315 3,-3 0,-1.65685 -1.34315,-3 -3,-3 -1.65685,0 -3,1.34315 -3,3 0,1.65685 1.34315,3 3,3 l 0,0 z m 0,32 c 1.65685,0 3,-1.34315 3,-3 0,-1.65685 -1.34315,-3 -3,-3 -1.65685,0 -3,1.34315 -3,3 0,1.65685 1.34315,3 3,3 l 0,0 z m 16,-32 c 1.65685,0 3,-1.34315 3,-3 0,-1.65685 -1.34315,-3 -3,-3 -1.65685,0 -3,1.34315 -3,3 0,1.65685 1.34315,3 3,3 l 0,0 z m 16,-16 c 1.65685,0 3,-1.34315 3,-3 0,-1.65685 -1.34315,-3 -3,-3 -1.65685,0 -3,1.34315 -3,3 0,1.65685 1.34315,3 3,3 l 0,0 z m -96,0 c 1.65685,0 3,-1.34315 3,-3 0,-1.65685 -1.34315,-3 -3,-3 -1.65685,0 -3,1.34315 -3,3 0,1.65685 1.34315,3 3,3 l 0,0 z m 0,16 c 1.65685,0 3,-1.34315 3,-3 0,-1.65685 -1.34315,-3 -3,-3 -1.65685,0 -3,1.34315 -3,3 0,1.65685 1.34315,3 3,3 l 0,0 z m 16,-32 c 1.65685,0 3,-1.34315 3,-3 0,-1.65685 -1.34315,-3 -3,-3 -1.65685,0 -3,1.34315 -3,3 0,1.65685 1.34315,3 3,3 l 0,0 z m 96,0 c 1.65685,0 3,-1.34315 3,-3 0,-1.65685 -1.34315,-3 -3,-3 -1.65685,0 -3,1.34315 -3,3 0,1.65685 1.34315,3 3,3 l 0,0 z M 273,52 c 1.65685,0 3,-1.343146 3,-3 0,-1.656854 -1.34315,-3 -3,-3 -1.65685,0 -3,1.343146 -3,3 0,1.656854 1.34315,3 3,3 l 0,0 z m 16,-16 c 1.65685,0 3,-1.343146 3,-3 0,-1.656854 -1.34315,-3 -3,-3 -1.65685,0 -3,1.343146 -3,3 0,1.656854 1.34315,3 3,3 l 0,0 z m -32,0 c 1.65685,0 3,-1.343146 3,-3 0,-1.656854 -1.34315,-3 -3,-3 -1.65685,0 -3,1.343146 -3,3 0,1.656854 1.34315,3 3,3 l 0,0 z m 0,-16 c 1.65685,0 3,-1.343146 3,-3 0,-1.656854 -1.34315,-3 -3,-3 -1.65685,0 -3,1.343146 -3,3 0,1.656854 1.34315,3 3,3 l 0,0 z m -16,0 c 1.65685,0 3,-1.343146 3,-3 0,-1.656854 -1.34315,-3 -3,-3 -1.65685,0 -3,1.343146 -3,3 0,1.656854 1.34315,3 3,3 l 0,0 z m -16,0 c 1.65685,0 3,-1.343146 3,-3 0,-1.656854 -1.34315,-3 -3,-3 -1.65685,0 -3,1.343146 -3,3 0,1.656854 1.34315,3 3,3 l 0,0 z m -16,0 c 1.65685,0 3,-1.343146 3,-3 0,-1.656854 -1.34315,-3 -3,-3 -1.65685,0 -3,1.343146 -3,3 0,1.656854 1.34315,3 3,3 l 0,0 z M 49,36 c 1.656854,0 3,-1.343146 3,-3 0,-1.656854 -1.343146,-3 -3,-3 -1.656854,0 -3,1.343146 -3,3 0,1.656854 1.343146,3 3,3 l 0,0 z m -32,0 c 1.656854,0 3,-1.343146 3,-3 0,-1.656854 -1.343146,-3 -3,-3 -1.656854,0 -3,1.343146 -3,3 0,1.656854 1.343146,3 3,3 l 0,0 z m 32,16 c 1.656854,0 3,-1.343146 3,-3 0,-1.656854 -1.343146,-3 -3,-3 -1.656854,0 -3,1.343146 -3,3 0,1.656854 1.343146,3 3,3 l 0,0 z M 33,68 c 1.656854,0 3,-1.343146 3,-3 0,-1.656854 -1.343146,-3 -3,-3 -1.656854,0 -3,1.343146 -3,3 0,1.656854 1.343146,3 3,3 l 0,0 z M 49,20 c 1.656854,0 3,-1.343146 3,-3 0,-1.656854 -1.343146,-3 -3,-3 -1.656854,0 -3,1.343146 -3,3 0,1.656854 1.343146,3 3,3 l 0,0 z m 0,240 c 1.656854,0 3,-1.34315 3,-3 0,-1.65685 -1.343146,-3 -3,-3 -1.656854,0 -3,1.34315 -3,3 0,1.65685 1.343146,3 3,3 l 0,0 z m 16,32 c 1.656854,0 3,-1.34315 3,-3 0,-1.65685 -1.343146,-3 -3,-3 -1.656854,0 -3,1.34315 -3,3 0,1.65685 1.343146,3 3,3 l 0,0 z M 49,228 c 1.656854,0 3,-1.34315 3,-3 0,-1.65685 -1.343146,-3 -3,-3 -1.656854,0 -3,1.34315 -3,3 0,1.65685 1.343146,3 3,3 l 0,0 z m 0,16 c 1.656854,0 3,-1.34315 3,-3 0,-1.65685 -1.343146,-3 -3,-3 -1.656854,0 -3,1.34315 -3,3 0,1.65685 1.343146,3 3,3 l 0,0 z M 33,212 c 1.656854,0 3,-1.34315 3,-3 0,-1.65685 -1.343146,-3 -3,-3 -1.656854,0 -3,1.34315 -3,3 0,1.65685 1.343146,3 3,3 l 0,0 z M 113,36 c 1.65685,0 3,-1.343146 3,-3 0,-1.656854 -1.34315,-3 -3,-3 -1.65685,0 -3,1.343146 -3,3 0,1.656854 1.34315,3 3,3 l 0,0 z m 16,0 c 1.65685,0 3,-1.343146 3,-3 0,-1.656854 -1.34315,-3 -3,-3 -1.65685,0 -3,1.343146 -3,3 0,1.656854 1.34315,3 3,3 l 0,0 z M 113,20 c 1.65685,0 3,-1.343146 3,-3 0,-1.656854 -1.34315,-3 -3,-3 -1.65685,0 -3,1.343146 -3,3 0,1.656854 1.34315,3 3,3 l 0,0 z m 32,48 c 1.65685,0 3,-1.343146 3,-3 0,-1.656854 -1.34315,-3 -3,-3 -1.65685,0 -3,1.343146 -3,3 0,1.656854 1.34315,3 3,3 l 0,0 z m 16,-16 c 1.65685,0 3,-1.343146 3,-3 0,-1.656854 -1.34315,-3 -3,-3 -1.65685,0 -3,1.343146 -3,3 0,1.656854 1.34315,3 3,3 l 0,0 z m 0,-32 c 1.65685,0 3,-1.343146 3,-3 0,-1.656854 -1.34315,-3 -3,-3 -1.65685,0 -3,1.343146 -3,3 0,1.656854 1.34315,3 3,3 l 0,0 z m 112,176 c 1.65685,0 3,-1.34315 3,-3 0,-1.65685 -1.34315,-3 -3,-3 -1.65685,0 -3,1.34315 -3,3 0,1.65685 1.34315,3 3,3 l 0,0 z m -16,16 c 1.65685,0 3,-1.34315 3,-3 0,-1.65685 -1.34315,-3 -3,-3 -1.65685,0 -3,1.34315 -3,3 0,1.65685 1.34315,3 3,3 l 0,0 z m 0,16 c 1.65685,0 3,-1.34315 3,-3 0,-1.65685 -1.34315,-3 -3,-3 -1.65685,0 -3,1.34315 -3,3 0,1.65685 1.34315,3 3,3 l 0,0 z m 0,16 c 1.65685,0 3,-1.34315 3,-3 0,-1.65685 -1.34315,-3 -3,-3 -1.65685,0 -3,1.34315 -3,3 0,1.65685 1.34315,3 3,3 l 0,0 z M 17,180 c 1.656854,0 3,-1.34315 3,-3 0,-1.65685 -1.343146,-3 -3,-3 -1.656854,0 -3,1.34315 -3,3 0,1.65685 1.343146,3 3,3 l 0,0 z m 0,16 c 1.656854,0 3,-1.34315 3,-3 0,-1.65685 -1.343146,-3 -3,-3 -1.656854,0 -3,1.34315 -3,3 0,1.65685 1.343146,3 3,3 l 0,0 z m 0,-32 c 1.656854,0 3,-1.34315 3,-3 0,-1.65685 -1.343146,-3 -3,-3 -1.656854,0 -3,1.34315 -3,3 0,1.65685 1.343146,3 3,3 l 0,0 z m 16,0 c 1.656854,0 3,-1.34315 3,-3 0,-1.65685 -1.343146,-3 -3,-3 -1.656854,0 -3,1.34315 -3,3 0,1.65685 1.343146,3 3,3 l 0,0 z M 17,84 c 1.656854,0 3,-1.343146 3,-3 0,-1.656854 -1.343146,-3 -3,-3 -1.656854,0 -3,1.343146 -3,3 0,1.656854 1.343146,3 3,3 l 0,0 z m 32,64 c 1.656854,0 3,-1.34315 3,-3 0,-1.65685 -1.343146,-3 -3,-3 -1.656854,0 -3,1.34315 -3,3 0,1.65685 1.343146,3 3,3 l 0,0 z m 16,-16 c 1.656854,0 3,-1.34315 3,-3 0,-1.65685 -1.343146,-3 -3,-3 -1.656854,0 -3,1.34315 -3,3 0,1.65685 1.343146,3 3,3 l 0,0 z M 34,39.792893 34,0 32,0 32,40.585786 8.5857864,64 0,64 0,66 7.7928932,66 9.4142136,66 34,41.414214 l 0,-1.621321 0,0 0,0 z M 2,300.10002 2,258 l 14,0 0,46 2,0 0,-47 0,-1 -17,0 -1,0 0,44.55001 0,1.6207 C 0.31277892,302.06015 0.64936458,302 1,302 c 1.3062188,0 2.4174579,0.83481 2.8292943,2 l 2.0706876,0 C 5.5022994,302.04087 3.9591304,300.4977 2,300.10002 l 0,0 0,0 z M 34,241 l 0,63 -2,0 0,-62 -32,0 0,-2 34,0 0,1 0,0 0,0 z M 17,18 l 1,0 0,-18 -2,0 0,16 -16,0 0,2 17,0 0,0 0,0 z m 273,-2 0,-16 -2,0 0,17 0,1 16,0 0,-2 -14,0 0,0 z m -32,273 0,15 -2,0 0,-14 -14,0 0,14 -2,0 0,-16 1,0 17,0 0,1 0,0 z M 0,92.100018 C 0.32310994,92.03443 0.65753416,92 1,92 c 2.7614238,0 5,2.238576 5,5 0,2.761424 -2.2385762,5 -5,5 -0.34246584,0 -0.67689006,-0.0344 -1,-0.10002 L 0,99.829294 C 0.31277892,99.939846 0.64936458,100 1,100 2.6568543,100 4,98.656854 4,97 4,95.343146 2.6568543,94 1,94 0.64936458,94 0.31277892,94.060154 0,94.170706 l 0,-2.070688 0,0 0,0 z M 80,272 l 2,0 0,32 -2,0 0,-32 0,0 z m 37.89998,32 c -0.46327,-2.28224 -2.48102,-4 -4.89998,-4 -2.41896,0 -4.43671,1.71776 -4.89998,4 l 2.07069,0 c 0.41183,-1.16519 1.52307,-2 2.82929,-2 1.30622,0 2.41746,0.83481 2.82929,2 l 2.07069,0 0,0 0,0 z M 5.8999819,0 C 5.9655697,0.32310994 6,0.65753416 6,1 6,3.7614238 3.7614238,6 1,6 0.65753416,6 0.32310994,5.9655697 0,5.8999819 L 0,3.8292943 C 0.31277892,3.9398458 0.64936458,4 1,4 2.6568543,4 4,2.6568543 4,1 4,0.64936458 3.9398458,0.31277892 3.8292943,0 l 2.0706876,0 0,0 0,0 z M 300.10002,0 C 300.03443,0.32310994 300,0.65753416 300,1 c 0,2.4189579 1.71776,4.4367115 4,4.8999819 l 0,-2.0706876 C 302.83481,3.4174579 302,2.3062188 302,1 c 0,-0.35063542 0.0602,-0.68722108 0.17071,-1 l -2.07069,0 0,0 0,0 z M 304,300.10002 c -1.95913,0.39768 -3.5023,1.94085 -3.89998,3.89998 l 2.07069,0 c 0.30128,-0.85241 0.97688,-1.52801 1.82929,-1.82929 l 0,-2.07069 0,0 z"
         id="Combined-Shape"
         style="fill:#00ff00;fill-opacity:1;stroke:url(#linearGradient5734);stroke-width:2.70000005;stroke-miterlimit:4;stroke-dasharray:none;stroke-opacity:1"
         inkscape:connector-curvature="0" />
    </g>
  </g>
</svg>
